<?xml version="1.0" standalone="no"?>
<!DOCTYPE svg PUBLIC "-//W3C//DTD SVG 20010904//EN"
 "http://www.w3.org/TR/2001/REC-SVG-20010904/DTD/svg10.dtd">
<svg version="1.0" xmlns="http://www.w3.org/2000/svg"
 width="260.000000pt" height="260.000000pt" viewBox="0 0 260.000000 260.000000"
 preserveAspectRatio="xMidYMid meet">
<metadata>
Created by potrace 1.11, written by Peter Selinger 2001-2013
</metadata>
<g transform="translate(0.000000,260.000000) scale(0.100000,-0.100000)"
fill="#000000" stroke="none">
<path d="M715 2443 c-185 -26 -371 -143 -439 -276 -58 -115 -58 -258 -1 -372
54 -107 200 -216 367 -276 l88 -32 0 -318 c0 -249 -3 -319 -12 -319 -30 0
-118 29 -173 57 -97 49 -101 55 -120 168 -27 162 -15 145 -111 145 l-84 0 0
-164 0 -164 57 -46 c106 -84 235 -142 371 -166 l72 -13 0 -97 0 -97 -77 -12
c-134 -21 -123 -13 -123 -97 l0 -74 325 0 325 0 0 75 0 74 -32 6 c-18 3 -64
11 -103 18 l-70 12 -3 97 c-3 108 -12 96 88 118 110 25 224 90 298 170 34 37
84 145 90 196 l5 44 213 0 214 0 0 -315 c0 -293 -1 -315 -17 -315 -10 0 -57
-7 -105 -16 l-88 -16 0 -74 0 -74 330 0 330 0 0 74 0 74 -62 11 c-35 6 -82 13
-105 17 l-43 7 0 732 0 733 63 11 c34 6 81 13 105 17 l42 7 0 78 0 79 -330 0
-330 0 0 -79 0 -78 43 -7 c23 -4 70 -11 105 -17 l62 -11 0 -324 0 -324 -227 0
-228 0 -29 55 c-32 62 -118 147 -192 190 -27 16 -89 45 -139 65 l-90 37 -3
147 c-3 170 -14 154 126 176 l82 12 0 79 0 79 -325 0 -325 0 0 -79 0 -79 68
-11 c37 -7 82 -14 100 -17 l32 -6 0 -114 c0 -71 -4 -114 -10 -114 -18 0 -134
62 -172 92 -20 16 -49 54 -64 84 -23 47 -26 63 -22 119 9 110 75 193 188 237
41 15 85 22 172 26 140 5 234 -12 323 -61 66 -37 62 -30 90 -189 l17 -98 84 0
84 0 0 163 0 163 -47 36 c-104 77 -222 129 -351 154 -68 13 -236 17 -307 7z
m333 -1057 c26 -13 65 -40 87 -60 l40 -36 -100 3 -100 2 -3 58 c-4 67 3 70 76
33z m172 -308 c-1 -70 -91 -173 -177 -202 -76 -26 -73 -30 -73 104 l0 120 125
0 c123 0 125 0 125 -22z"/>
</g>
</svg>
