<?xml version="1.0" standalone="no"?>
<!DOCTYPE svg PUBLIC "-//W3C//DTD SVG 20010904//EN"
 "http://www.w3.org/TR/2001/REC-SVG-20010904/DTD/svg10.dtd">
<svg version="1.0" xmlns="http://www.w3.org/2000/svg"
 width="260.000000pt" height="260.000000pt" viewBox="0 0 260.000000 260.000000"
 preserveAspectRatio="xMidYMid meet">
<metadata>
Created by potrace 1.11, written by Peter Selinger 2001-2013
</metadata>
<g transform="translate(0.000000,260.000000) scale(0.100000,-0.100000)"
fill="#000000" stroke="none">
<path d="M320 2220 l0 -30 135 0 135 0 0 -1005 0 -1005 -135 0 -135 0 0 -30 0
-30 428 2 427 3 3 27 3 28 -140 0 -141 0 0 525 0 525 415 0 415 0 0 -525 0
-525 -135 0 -135 0 0 -30 0 -30 430 0 430 0 0 30 0 30 -135 0 -135 0 0 1005 0
1005 135 0 135 0 0 30 0 30 -430 0 -430 0 0 -30 0 -30 135 0 135 0 0 -450 0
-450 -415 0 -415 0 0 450 0 449 138 3 137 3 3 28 3 27 -430 0 -431 0 0 -30z"/>
<path d="M1442 1933 c-9 -15 -14 -15 -37 -5 -41 19 -125 15 -162 -8 -62 -38
-88 -112 -59 -168 21 -41 45 -56 136 -87 108 -37 120 -47 120 -99 0 -53 -27
-92 -75 -105 -68 -19 -138 18 -170 88 -10 23 -22 41 -27 41 -4 0 -8 -34 -8
-75 0 -76 9 -92 32 -56 12 19 13 19 52 -2 124 -63 255 23 244 161 -4 46 -10
60 -36 83 -16 15 -56 34 -89 43 -32 9 -71 22 -86 28 -92 36 -55 148 49 148 52
0 97 -34 114 -85 18 -55 30 -41 30 34 0 71 -11 95 -28 64z"/>
<path d="M1259 1060 c-44 -23 -96 -81 -117 -129 -25 -59 -20 -157 11 -217 33
-65 95 -119 153 -133 50 -13 84 -7 133 22 l34 21 15 -22 c25 -38 32 -25 32 58
0 44 -4 80 -8 80 -5 0 -17 -18 -27 -39 -47 -105 -160 -141 -220 -69 -37 44
-48 100 -43 223 6 157 36 205 127 205 57 0 105 -30 128 -80 10 -22 21 -40 26
-40 4 0 7 32 7 70 0 39 -3 70 -7 70 -3 0 -14 -7 -24 -16 -16 -14 -20 -14 -48
0 -41 22 -127 20 -172 -4z"/>
</g>
</svg>
